<svg width="18" height="17" viewBox="0 0 18 17" fill="none" xmlns="http://www.w3.org/2000/svg">
<path d="M9 16.8333C7.95833 16.8333 6.98264 16.6354 6.07292 16.2396C5.16319 15.8437 4.37153 15.309 3.69792 14.6354C3.02431 13.9618 2.48958 13.1701 2.09375 12.2604C1.69792 11.3507 1.5 10.375 1.5 9.33333C1.5 8.29167 1.69792 7.31597 2.09375 6.40625C2.48958 5.49653 3.02431 4.70486 3.69792 4.03125C4.37153 3.35764 5.16319 2.82292 6.07292 2.42708C6.98264 2.03125 7.95833 1.83333 9 1.83333C10.0417 1.83333 11.0174 2.03125 11.9271 2.42708C12.8368 2.82292 13.6285 3.35764 14.3021 4.03125C14.9757 4.70486 15.5104 5.49653 15.9063 6.40625C16.3021 7.31597 16.5 8.29167 16.5 9.33333C16.5 10.375 16.3021 11.3507 15.9063 12.2604C15.5104 13.1701 14.9757 13.9618 14.3021 14.6354C13.6285 15.309 12.8368 15.8437 11.9271 16.2396C11.0174 16.6354 10.0417 16.8333 9 16.8333ZM11.3333 12.8333L12.5 11.6667L9.83333 9V5.16667H8.16667V9.66667L11.3333 12.8333ZM3.66667 0.458332L4.83333 1.625L1.29167 5.16667L0.125 4L3.66667 0.458332ZM14.3333 0.458332L17.875 4L16.7083 5.16667L13.1667 1.625L14.3333 0.458332ZM9 15.1667C10.625 15.1667 12.0035 14.6007 13.1354 13.4687C14.2674 12.3368 14.8333 10.9583 14.8333 9.33333C14.8333 7.70833 14.2674 6.32986 13.1354 5.19792C12.0035 4.06597 10.625 3.5 9 3.5C7.375 3.5 5.99653 4.06597 4.86458 5.19792C3.73264 6.32986 3.16667 7.70833 3.16667 9.33333C3.16667 10.9583 3.73264 12.3368 4.86458 13.4687C5.99653 14.6007 7.375 15.1667 9 15.1667Z" fill="#333333"/>
</svg>
