<svg width="18" height="21" viewBox="0 0 18 21" fill="none" xmlns="http://www.w3.org/2000/svg">
<path d="M7.95 16.85L4.4 13.3L5.85 11.85L7.95 13.95L12.15 9.75L13.6 11.2L7.95 16.85ZM2 20.5C1.45 20.5 0.979167 20.3042 0.5875 19.9125C0.195833 19.5208 0 19.05 0 18.5V4.5C0 3.95 0.195833 3.47917 0.5875 3.0875C0.979167 2.69583 1.45 2.5 2 2.5H3V0.5H5V2.5H13V0.5H15V2.5H16C16.55 2.5 17.0208 2.69583 17.4125 3.0875C17.8042 3.47917 18 3.95 18 4.5V18.5C18 19.05 17.8042 19.5208 17.4125 19.9125C17.0208 20.3042 16.55 20.5 16 20.5H2ZM2 18.5H16V8.5H2V18.5ZM2 6.5H16V4.5H2V6.5Z" fill="#0F0F0F"/>
</svg>
