<svg width="24" height="25" viewBox="0 0 24 25" fill="none" xmlns="http://www.w3.org/2000/svg">
<path d="M7.16663 24.1667C6.52496 24.1667 5.97565 23.9382 5.51871 23.4813C5.06176 23.0243 4.83329 22.475 4.83329 21.8333C4.83329 21.1917 5.06176 20.6424 5.51871 20.1854C5.97565 19.7285 6.52496 19.5 7.16663 19.5C7.80829 19.5 8.3576 19.7285 8.81454 20.1854C9.27149 20.6424 9.49996 21.1917 9.49996 21.8333C9.49996 22.475 9.27149 23.0243 8.81454 23.4813C8.3576 23.9382 7.80829 24.1667 7.16663 24.1667ZM18.8333 24.1667C18.1916 24.1667 17.6423 23.9382 17.1854 23.4813C16.7284 23.0243 16.5 22.475 16.5 21.8333C16.5 21.1917 16.7284 20.6424 17.1854 20.1854C17.6423 19.7285 18.1916 19.5 18.8333 19.5C19.475 19.5 20.0243 19.7285 20.4812 20.1854C20.9382 20.6424 21.1666 21.1917 21.1666 21.8333C21.1666 22.475 20.9382 23.0243 20.4812 23.4813C20.0243 23.9382 19.475 24.1667 18.8333 24.1667ZM6.17496 5.5L8.97496 11.3333H17.1416L20.35 5.5H6.17496ZM5.06663 3.16667H22.275C22.7222 3.16667 23.0625 3.36597 23.2958 3.76458C23.5291 4.16319 23.5388 4.56667 23.325 4.975L19.1833 12.4417C18.9694 12.8306 18.6826 13.1319 18.3229 13.3458C17.9632 13.5597 17.5694 13.6667 17.1416 13.6667H8.44996L7.16663 16H21.1666V18.3333H7.16663C6.29163 18.3333 5.63052 17.9493 5.18329 17.1812C4.73607 16.4132 4.71663 15.65 5.12496 14.8917L6.69996 12.0333L2.49996 3.16667H0.166626V0.833333H3.95829L5.06663 3.16667Z" fill="#333333"/>
</svg>
