<svg width="23" height="16" viewBox="0 0 23 16" fill="none" xmlns="http://www.w3.org/2000/svg">
<path fill-rule="evenodd" clip-rule="evenodd" d="M1.0797 1.19886C1.0797 0.895752 1.19559 0.605062 1.40188 0.390735C1.60817 0.176408 1.88796 0.0559998 2.1797 0.0559998H17.5797C17.8714 0.0559998 18.1512 0.176408 18.3575 0.390735C18.5638 0.605062 18.6797 0.895752 18.6797 1.19886C18.6797 1.50196 18.5638 1.79265 18.3575 2.00698C18.1512 2.22131 17.8714 2.34171 17.5797 2.34171H2.1797C1.88796 2.34171 1.60817 2.22131 1.40188 2.00698C1.19559 1.79265 1.0797 1.50196 1.0797 1.19886ZM21.598 13.9931C21.7984 14.2087 21.9092 14.4974 21.9067 14.797C21.9042 15.0967 21.7885 15.3833 21.5846 15.5952C21.3806 15.8071 21.1048 15.9273 20.8163 15.9299C20.5279 15.9325 20.2501 15.8173 20.0426 15.6091L18.5686 14.1234C17.5386 14.7968 16.3059 15.0523 15.106 14.8412C13.9061 14.6301 12.8231 13.9671 12.0639 12.979C11.3047 11.9908 10.9224 10.7467 10.9901 9.48431C11.0579 8.22189 11.5708 7.02963 12.4311 6.13526C13.2913 5.24089 14.4385 4.7071 15.6535 4.63584C16.8685 4.56459 18.0662 4.96086 19.0179 5.74896C19.9695 6.53707 20.6084 7.66178 20.8124 8.90826C21.0164 10.1547 20.7714 11.4356 20.124 12.5063L21.598 13.992V13.9931ZM2.1797 5.77029C1.88796 5.77029 1.60817 5.89069 1.40188 6.10502C1.19559 6.31935 1.0797 6.61004 1.0797 6.91314C1.0797 7.21625 1.19559 7.50694 1.40188 7.72126C1.60817 7.93559 1.88796 8.056 2.1797 8.056H8.7676C9.05933 8.056 9.33912 7.93559 9.54541 7.72126C9.7517 7.50694 9.8676 7.21625 9.8676 6.91314C9.8676 6.61004 9.7517 6.31935 9.54541 6.10502C9.33912 5.89069 9.05933 5.77029 8.7676 5.77029H2.1797ZM1.0797 12.6274C1.0797 12.3243 1.19559 12.0336 1.40188 11.8193C1.60817 11.605 1.88796 11.4846 2.1797 11.4846H8.7797C9.07143 11.4846 9.35122 11.605 9.55751 11.8193C9.7638 12.0336 9.8797 12.3243 9.8797 12.6274C9.8797 12.9305 9.7638 13.2212 9.55751 13.4355C9.35122 13.6499 9.07143 13.7703 8.7797 13.7703H2.1797C1.88796 13.7703 1.60817 13.6499 1.40188 13.4355C1.19559 13.2212 1.0797 12.9305 1.0797 12.6274ZM19.2297 9.77028C19.2297 10.2205 19.1443 10.6664 18.9785 11.0823C18.8127 11.4983 18.5696 11.8763 18.2631 12.1947C17.9567 12.513 17.5929 12.7656 17.1926 12.9379C16.7922 13.1102 16.3631 13.1989 15.9297 13.1989C15.4963 13.1989 15.0672 13.1102 14.6668 12.9379C14.2665 12.7656 13.9027 12.513 13.5962 12.1947C13.2898 11.8763 13.0467 11.4983 12.8809 11.0823C12.7151 10.6664 12.6297 10.2205 12.6297 9.77028C12.6297 8.86097 12.9774 7.9889 13.5962 7.34592C14.2151 6.70294 15.0545 6.34171 15.9297 6.34171C16.8049 6.34171 17.6443 6.70294 18.2631 7.34592C18.882 7.9889 19.2297 8.86097 19.2297 9.77028Z" fill="white"/>
</svg>
