<svg width="12" height="13" viewBox="0 0 12 13" fill="none" xmlns="http://www.w3.org/2000/svg">
<path d="M6.66294 6.50003L11.8627 1.30023C12.0458 1.11716 12.0458 0.820349 11.8627 0.637303C11.6796 0.454256 11.3828 0.454232 11.1998 0.637303L5.99999 5.8371L0.80023 0.637303C0.61716 0.454232 0.320349 0.454232 0.137302 0.637303C-0.045744 0.820373 -0.0457674 1.11719 0.137302 1.30023L5.33706 6.5L0.137302 11.6998C-0.0457674 11.8829 -0.0457674 12.1797 0.137302 12.3627C0.228825 12.4543 0.348802 12.5 0.468778 12.5C0.588754 12.5 0.708707 12.4543 0.800254 12.3627L5.99999 7.16296L11.1997 12.3627C11.2913 12.4543 11.4112 12.5 11.5312 12.5C11.6512 12.5 11.7712 12.4543 11.8627 12.3627C12.0458 12.1797 12.0458 11.8828 11.8627 11.6998L6.66294 6.50003Z" fill="#333333"/>
</svg>
