<svg width="24" height="20" viewBox="0 0 24 20" fill="none" xmlns="http://www.w3.org/2000/svg">
<path d="M5.29183 0.375002C6.51683 0.375001 7.55224 0.797918 8.39808 1.64375C9.24391 2.48959 9.66683 3.525 9.66683 4.75C9.66683 5.975 9.24391 7.01042 8.39808 7.85625C7.55224 8.70208 6.51683 9.125 5.29183 9.125C4.06683 9.125 3.03141 8.70208 2.18558 7.85625C1.33974 7.01042 0.916827 5.975 0.916827 4.75C0.916827 3.525 1.33974 2.48959 2.18558 1.64375C3.03141 0.797918 4.06683 0.375002 5.29183 0.375002ZM5.29183 2.70834C4.72794 2.70834 4.24669 2.90764 3.84807 3.30625C3.44946 3.70486 3.25016 4.18611 3.25016 4.75C3.25016 5.31389 3.44946 5.79514 3.84807 6.19375C4.24669 6.59236 4.72794 6.79167 5.29183 6.79167C5.85572 6.79167 6.33697 6.59236 6.73558 6.19375C7.13419 5.79514 7.33349 5.31389 7.33349 4.75C7.33349 4.18611 7.13419 3.70486 6.73558 3.30625C6.33697 2.90764 5.85572 2.70834 5.29183 2.70834ZM21.3335 3.58333L21.3335 5.91667L12.0002 5.91667L12.0002 3.58333L21.3335 3.58333ZM18.7085 10.875C19.9335 10.875 20.9689 11.2979 21.8147 12.1438C22.6606 12.9896 23.0835 14.025 23.0835 15.25C23.0835 16.475 22.6606 17.5104 21.8147 18.3563C20.9689 19.2021 19.9335 19.625 18.7085 19.625C17.4835 19.625 16.4481 19.2021 15.6022 18.3563C14.7564 17.5104 14.3335 16.475 14.3335 15.25C14.3335 14.025 14.7564 12.9896 15.6022 12.1438C16.4481 11.2979 17.4835 10.875 18.7085 10.875ZM18.7085 13.2083C18.1446 13.2083 17.6634 13.4076 17.2647 13.8063C16.8661 14.2049 16.6668 14.6861 16.6668 15.25C16.6668 15.8139 16.8661 16.2951 17.2647 16.6938C17.6634 17.0924 18.1446 17.2917 18.7085 17.2917C19.2724 17.2917 19.7536 17.0924 20.1522 16.6938C20.5509 16.2951 20.7502 15.8139 20.7502 15.25C20.7502 14.6861 20.5509 14.2049 20.1522 13.8063C19.7536 13.4076 19.2724 13.2083 18.7085 13.2083ZM12.0002 14.0833L12.0002 16.4167L2.66683 16.4167L2.66683 14.0833L12.0002 14.0833Z" fill="#FF6600"/>
</svg>
