<svg width="22" height="20" viewBox="0 0 22 20" fill="none" xmlns="http://www.w3.org/2000/svg">
<path d="M14.5 18.1667L14.5 15.8333L0.499999 15.8333L0.499998 18.1667L14.5 18.1667ZM14.5 11.1667L14.5 8.83332L0.499999 8.83332L0.499999 11.1667L14.5 11.1667ZM14.5 4.16666L14.5 1.83332L0.5 1.83332L0.5 4.16665L14.5 4.16666ZM19.1667 19.3333C19.8083 19.3333 20.3576 19.1049 20.8146 18.6479C21.2715 18.191 21.5 17.6417 21.5 17C21.5 16.3583 21.2715 15.809 20.8146 15.3521C20.3576 14.8951 19.8083 14.6667 19.1667 14.6667C18.525 14.6667 17.9757 14.8951 17.5187 15.3521C17.0618 15.809 16.8333 16.3583 16.8333 17C16.8333 17.6417 17.0618 18.191 17.5187 18.6479C17.9757 19.1049 18.525 19.3333 19.1667 19.3333ZM19.1667 12.3333C19.8083 12.3333 20.3576 12.1049 20.8146 11.6479C21.2715 11.191 21.5 10.6417 21.5 9.99999C21.5 9.35832 21.2715 8.80902 20.8146 8.35207C20.3576 7.89513 19.8083 7.66666 19.1667 7.66666C18.525 7.66666 17.9757 7.89513 17.5187 8.35207C17.0618 8.80902 16.8333 9.35832 16.8333 9.99999C16.8333 10.6417 17.0618 11.191 17.5187 11.6479C17.9757 12.1049 18.525 12.3333 19.1667 12.3333ZM19.1667 5.33332C19.8083 5.33332 20.3576 5.10485 20.8146 4.64791C21.2715 4.19096 21.5 3.64166 21.5 2.99999C21.5 2.35832 21.2715 1.80902 20.8146 1.35207C20.3576 0.895129 19.8083 0.666656 19.1667 0.666656C18.525 0.666656 17.9757 0.895128 17.5187 1.35207C17.0618 1.80902 16.8333 2.35832 16.8333 2.99999C16.8333 3.64166 17.0618 4.19096 17.5187 4.64791C17.9757 5.10485 18.525 5.33332 19.1667 5.33332Z" fill="#333333"/>
</svg>
