<svg width="22" height="22" viewBox="0 0 22 22" fill="none" xmlns="http://www.w3.org/2000/svg">
<path d="M21.5 9.83333L21.5 0.5L12.1667 0.499999L12.1667 9.83333L21.5 9.83333ZM21.5 21.5L21.5 12.1667L12.1667 12.1667L12.1667 21.5L21.5 21.5ZM9.83333 9.83333L9.83333 0.499999L0.5 0.499998L0.499999 9.83333L9.83333 9.83333ZM9.83333 21.5L9.83333 12.1667L0.499999 12.1667L0.499998 21.5L9.83333 21.5ZM19.1667 7.5L14.5 7.5L14.5 2.83333L19.1667 2.83333L19.1667 7.5ZM7.5 7.5L2.83333 7.5L2.83333 2.83333L7.5 2.83333L7.5 7.5ZM7.5 19.1667L2.83333 19.1667L2.83333 14.5L7.5 14.5L7.5 19.1667ZM19.1667 19.1667L14.5 19.1667L14.5 14.5L19.1667 14.5L19.1667 19.1667Z" fill="#FF6600"/>
</svg>
