<svg width="32" height="32" viewBox="0 0 32 32" fill="none" xmlns="http://www.w3.org/2000/svg">
<path fill-rule="evenodd" clip-rule="evenodd" d="M16 0C7.16344 0 0 7.16344 0 16C0 24.8366 7.16344 32 16 32C24.8366 32 32 24.8366 32 16C32 7.16344 24.8366 0 16 0ZM12.4818 7.51883C13.392 7.4774 13.6829 7.46727 16.0004 7.46727H15.9977C18.316 7.46727 18.6058 7.4774 19.516 7.51883C20.4244 7.56043 21.0449 7.70425 21.5889 7.91527C22.1507 8.13305 22.6254 8.42461 23.1 8.89928C23.5747 9.3736 23.8663 9.84969 24.0849 10.4109C24.2947 10.9535 24.4387 11.5736 24.4814 12.4821C24.5223 13.3923 24.5329 13.6832 24.5329 16.0007C24.5329 18.3182 24.5223 18.6084 24.4814 19.5186C24.4387 20.4267 24.2947 21.047 24.0849 21.5897C23.8663 22.1508 23.5747 22.6269 23.1 23.1012C22.6259 23.5759 22.1505 23.8681 21.5894 24.0861C21.0465 24.2971 20.4257 24.441 19.5172 24.4826C18.607 24.524 18.317 24.5341 15.9993 24.5341C13.682 24.5341 13.3913 24.524 12.4811 24.4826C11.5728 24.441 10.9525 24.2971 10.4096 24.0861C9.84869 23.8681 9.37259 23.5759 8.89845 23.1012C8.42396 22.6269 8.1324 22.1508 7.91427 21.5895C7.70342 21.047 7.5596 20.4269 7.51782 19.5184C7.47657 18.6082 7.46626 18.3182 7.46626 16.0007C7.46626 13.6832 7.47693 13.3921 7.51764 12.4819C7.55853 11.5738 7.70253 10.9535 7.91409 10.4108C8.13276 9.84969 8.42432 9.3736 8.89899 8.89928C9.3733 8.42479 9.8494 8.13323 10.4106 7.91527C10.9532 7.70425 11.5733 7.56043 12.4818 7.51883Z" fill="#0F0F0F"/>
<path fill-rule="evenodd" clip-rule="evenodd" d="M15.2355 9.00555C15.3841 9.00532 15.544 9.00539 15.7166 9.00547L16.001 9.00555C18.2794 9.00555 18.5495 9.01373 19.4492 9.05462C20.2812 9.09266 20.7328 9.23169 21.0336 9.34849C21.4318 9.50316 21.7157 9.68805 22.0142 9.98672C22.3129 10.2854 22.4978 10.5698 22.6528 10.9681C22.7696 11.2685 22.9088 11.7201 22.9467 12.5521C22.9876 13.4516 22.9964 13.7219 22.9964 15.9992C22.9964 18.2766 22.9876 18.5468 22.9467 19.4464C22.9086 20.2784 22.7696 20.7299 22.6528 21.0304C22.4981 21.4286 22.3129 21.7122 22.0142 22.0107C21.7155 22.3093 21.432 22.4942 21.0336 22.6489C20.7331 22.7662 20.2812 22.9049 19.4492 22.9429C18.5496 22.9838 18.2794 22.9927 16.001 22.9927C13.7224 22.9927 13.4524 22.9838 12.5528 22.9429C11.7208 22.9045 11.2692 22.7655 10.9682 22.6487C10.57 22.494 10.2856 22.3092 9.98689 22.0105C9.68822 21.7118 9.50333 21.4281 9.34831 21.0297C9.23151 20.7292 9.09231 20.2777 9.05444 19.4457C9.01355 18.5461 9.00537 18.2759 9.00537 15.9971C9.00537 13.7183 9.01355 13.4495 9.05444 12.5499C9.09248 11.7179 9.23151 11.2664 9.34831 10.9656C9.50298 10.5673 9.68822 10.2829 9.98689 9.98423C10.2856 9.68556 10.57 9.50067 10.9682 9.34564C11.269 9.22831 11.7208 9.08964 12.5528 9.05142C13.34 9.01586 13.6451 9.0052 15.2355 9.00342V9.00555ZM20.556 10.4231C19.9907 10.4231 19.532 10.8812 19.532 11.4467C19.532 12.0121 19.9907 12.4707 20.556 12.4707C21.1214 12.4707 21.58 12.0121 21.58 11.4467C21.58 10.8814 21.1214 10.4227 20.556 10.4227V10.4231ZM11.6192 16.0005C11.6192 13.5804 13.5813 11.6183 16.0013 11.6182C18.4214 11.6182 20.383 13.5804 20.383 16.0005C20.383 18.4206 18.4216 20.3819 16.0015 20.3819C13.5814 20.3819 11.6192 18.4206 11.6192 16.0005Z" fill="#0F0F0F"/>
<path fill-rule="evenodd" clip-rule="evenodd" d="M16.0007 13.1564C17.5716 13.1564 18.8452 14.4298 18.8452 16.0008C18.8452 17.5717 17.5716 18.8453 16.0007 18.8453C14.4297 18.8453 13.1562 17.5717 13.1562 16.0008C13.1562 14.4298 14.4297 13.1564 16.0007 13.1564V13.1564Z" fill="#0F0F0F"/>
</svg>
