<svg width="87" height="34" viewBox="0 0 87 34" fill="none" xmlns="http://www.w3.org/2000/svg">
<path d="M7.25481 15.1146C4.97311 15.1146 2.91302 15.1146 0.87755 15.1146C-0.140186 9.11046 4.92388 2.66592 11.4571 1.52228C20.6906 -0.0927185 28.537 6.51409 27.7655 15.2923C27.4618 18.7155 25.4674 21.3968 23.1692 23.8927C22.9476 24.1323 22.4634 24.2636 22.0941 24.2636C19.6728 24.2945 17.2516 24.2791 14.3543 24.2791C16.1108 22.2159 17.6374 20.4232 19.164 18.6382C21.0681 16.3973 21.9381 13.9786 20.5264 11.22C19.1886 8.60819 16.0451 7.05501 13.2381 7.54956C9.9551 8.1291 7.61595 10.5091 7.33689 13.5691C7.28765 14.0482 7.27943 14.535 7.25481 15.1146Z" fill="#FF6600"/>
<path d="M27.0022 30.8086V33.5595H1.21405C1.21405 30.7623 1.18942 27.9573 1.24688 25.1523C1.25508 24.7891 1.69008 24.4104 1.97735 24.0782C5.22754 20.2454 7.96886 16.4204 11.2273 12.6032C12.7785 10.7873 14.7483 10.4009 16.3241 11.5832C17.9164 12.7732 17.9656 14.6895 16.439 16.49C13.4105 20.06 10.3737 23.6223 7.09885 27.4627H23.4483C25.4099 27.4704 27.0022 28.9618 27.0022 30.8086Z" fill="#FF6600"/>
<path d="M57.6081 3.62409L52.9052 8.63136C52.0844 7.89727 51.0092 7.50318 49.893 7.50318C46.5854 7.50318 43.7948 9.65909 42.933 12.6032H48.7358V19.3645H42.6458V33.7836H35.6693V19.3645H31.1634V12.6032H35.8089C36.6625 6.68409 41.4146 1.955 47.4636 0.942726C48.2515 0.803635 49.0723 0.741821 49.893 0.741821C50.6235 0.741821 51.3458 0.811362 52.0598 0.942726C54.1199 1.31364 56.0405 2.23318 57.6081 3.62409Z" fill="#FF6600"/>
<path d="M51.5591 16.1036V15.9104C51.5591 14.0945 53.1186 12.6263 55.0474 12.6263C56.9761 12.6263 58.5356 14.0945 58.5356 15.9104V16.1036C58.5356 17.9195 56.9761 19.3877 55.0474 19.3877C53.1186 19.3877 51.5591 17.9118 51.5591 16.1036ZM51.5591 33.7836V21.8063H58.5356V33.7836H51.5591Z" fill="#FF6600"/>
<path d="M78.1926 23.7845L85.8831 33.7836H77.1831L73.8508 29.4486L70.5104 33.7836H61.8022L69.4926 23.7845L60.9075 12.6186H69.6075L73.8426 18.1282L78.0695 12.6186H86.7695L78.1926 23.7845Z" fill="#FF6600"/>
</svg>
