<svg width="60" height="25" viewBox="0 0 60 25" fill="none" xmlns="http://www.w3.org/2000/svg">
<g clip-path="url(#clip0_550_902)">
<path d="M4.65849 11.1691C3.08491 11.1691 1.66416 11.1691 0.260383 11.1691C-0.441504 6.93091 3.05095 2.38182 7.55661 1.57455C13.9245 0.434548 19.3359 5.09818 18.8038 11.2945C18.5943 13.7109 17.2189 15.6036 15.634 17.3655C15.4811 17.5345 15.1472 17.6273 14.8925 17.6273C13.2226 17.6491 11.5528 17.6382 9.55473 17.6382C10.766 16.1818 11.8189 14.9164 12.8717 13.6564C14.1849 12.0745 14.7849 10.3673 13.8113 8.42C12.8887 6.57637 10.7208 5.48 8.78491 5.8291C6.52076 6.23819 4.90755 7.91818 4.7151 10.0782C4.68114 10.4164 4.67548 10.76 4.65849 11.1691Z" fill="black"/>
<path d="M18.2774 22.2473V24.1891H0.492463C0.492463 22.2145 0.475482 20.2345 0.515105 18.2545C0.520765 17.9982 0.820765 17.7309 1.01888 17.4964C3.26039 14.7909 5.15096 12.0909 7.39813 9.39636C8.46794 8.11454 9.82642 7.84182 10.9132 8.67636C12.0113 9.51636 12.0453 10.8691 10.9925 12.14C8.90378 14.66 6.80944 17.1745 4.55095 19.8854H15.8264C17.1793 19.8909 18.2774 20.9436 18.2774 22.2473Z" fill="black"/>
<path d="M39.3849 3.05818L36.1415 6.59273C35.5755 6.07454 34.834 5.79637 34.0641 5.79637C31.783 5.79637 29.8585 7.31818 29.2641 9.39636H33.266V14.1691H29.066V24.3473H24.2547V14.1691H21.1472V9.39636H24.3509C24.9396 5.21818 28.217 1.88 32.3887 1.16546C32.9321 1.06727 33.4981 1.02364 34.0641 1.02364C34.5679 1.02364 35.066 1.07273 35.5585 1.16546C36.9792 1.42727 38.3038 2.07636 39.3849 3.05818Z" fill="black"/>
<path d="M35.2132 11.8673V11.7309C35.2132 10.4491 36.2887 9.41272 37.6189 9.41272C38.9491 9.41272 40.0245 10.4491 40.0245 11.7309V11.8673C40.0245 13.1491 38.9491 14.1855 37.6189 14.1855C36.2887 14.1855 35.2132 13.1436 35.2132 11.8673ZM35.2132 24.3473V15.8927H40.0245V24.3473H35.2132Z" fill="black"/>
<path d="M53.5811 17.2891L58.8849 24.3473H52.8849L50.5868 21.2873L48.283 24.3473H42.2774L47.5811 17.2891L41.6604 9.40727H47.6604L50.5811 13.2964L53.4962 9.40727H59.4962L53.5811 17.2891Z" fill="black"/>
</g>
<defs>
<clipPath id="clip0_550_902">
<rect width="60" height="24" fill="white" transform="translate(0 0.5)"/>
</clipPath>
</defs>
</svg>
