<svg width="18" height="15" viewBox="0 0 18 15" fill="none" xmlns="http://www.w3.org/2000/svg">
<path d="M2.33332 14.1667C1.87499 14.1667 1.48263 14.0035 1.15624 13.6771C0.829851 13.3507 0.666656 12.9583 0.666656 12.5V2.5C0.666656 2.04167 0.829851 1.6493 1.15624 1.32292C1.48263 0.996527 1.87499 0.833332 2.33332 0.833332H15.6667C16.125 0.833332 16.5174 0.996527 16.8437 1.32292C17.1701 1.6493 17.3333 2.04167 17.3333 2.5V12.5C17.3333 12.9583 17.1701 13.3507 16.8437 13.6771C16.5174 14.0035 16.125 14.1667 15.6667 14.1667H2.33332ZM8.99999 8.33333L2.33332 4.16667V12.5H15.6667V4.16667L8.99999 8.33333ZM8.99999 6.66667L15.6667 2.5H2.33332L8.99999 6.66667ZM2.33332 4.16667V2.5V12.5V4.16667Z" fill="#333333"/>
</svg>
