<svg width="29" height="28" viewBox="0 0 29 28" fill="none" xmlns="http://www.w3.org/2000/svg">
<g clip-path="url(#clip0_559_687)">
<path d="M27.4033 17.8889L24.23 14L27.3411 10.1889C27.5113 9.9804 27.6185 9.72772 27.6502 9.46048C27.6819 9.19323 27.6367 8.92249 27.52 8.68C27.4018 8.40819 27.2057 8.17747 26.9566 8.01691C26.7075 7.85635 26.4164 7.77314 26.12 7.77777H2.00889C1.8138 7.77469 1.62001 7.81006 1.43859 7.88188C1.25717 7.95369 1.09167 8.06055 0.951555 8.19633C0.811437 8.33211 0.699441 8.49417 0.621962 8.67325C0.544483 8.85232 0.50304 9.0449 0.5 9.24L0.5 18.7678C0.508175 19.1604 0.671501 19.5339 0.954261 19.8064C1.23702 20.079 1.6162 20.2285 2.00889 20.2222H26.2056C26.492 20.227 26.7738 20.1497 27.0178 19.9995C27.2617 19.8493 27.4576 19.6324 27.5822 19.3744C27.6942 19.1348 27.7367 18.8687 27.7051 18.6061C27.6735 18.3435 27.5689 18.0951 27.4033 17.8889ZM2.05556 18.6667V9.33333H25.9956L22.2311 13.9456L26.05 18.6667H2.05556Z" fill="#0F0F0F"/>
<path d="M7.80336 15.05L5.2678 11.6667H4.38892V16.4733H5.2678V13.0978L7.80336 16.4733H8.67447V11.6667H7.80336V15.05Z" fill="black"/>
<path d="M9.97339 16.4733H13.5978V15.68H10.8523V14.4278H13.3334V13.6267H10.8523V12.4678H13.5978V11.6667H9.97339V16.4733Z" fill="black"/>
<path d="M19.5712 15.1122L18.4357 11.6667H17.4868L16.3434 15.1122L15.3168 11.6667H14.3601L15.8846 16.4733H16.7479L17.9612 12.9033L19.1668 16.4733H20.0457L21.5623 11.6667H20.6057L19.5712 15.1122Z" fill="black"/>
</g>
<defs>
<clipPath id="clip0_559_687">
<rect width="28" height="28" fill="white" transform="translate(0.5)"/>
</clipPath>
</defs>
</svg>
