<svg width="32" height="32" viewBox="0 0 32 32" fill="none" xmlns="http://www.w3.org/2000/svg">
<path fill-rule="evenodd" clip-rule="evenodd" d="M0 16C0 7.16344 7.16344 0 16 0C24.8366 0 32 7.16344 32 16C32 24.8366 24.8366 32 16 32C7.16344 32 0 24.8366 0 16Z" fill="#828282"/>
<g clip-path="url(#clip0_753_1721)">
<path d="M16.5152 5.87061C13.8896 5.87061 11.7252 7.9995 11.7252 10.6606C11.7252 13.2863 13.8541 15.4506 16.5152 15.4506C19.1764 15.4506 21.3053 13.3217 21.3053 10.6606C21.3053 7.9995 19.1409 5.87061 16.5152 5.87061ZM16.5152 12.2573C15.6282 12.2573 14.9186 11.5477 14.9186 10.6606C14.9186 9.77358 15.6282 9.06395 16.5152 9.06395C17.4023 9.06395 18.1119 9.77358 18.1119 10.6606C18.1119 11.5477 17.4023 12.2573 16.5152 12.2573ZM22.4052 18.6795C21.1988 19.3536 19.886 19.8149 18.5732 20.0278L22.2987 24.6049C22.7245 25.1371 22.831 25.8822 22.4407 26.4499C21.8375 27.3725 20.5601 27.4079 19.9215 26.5919L16.4798 22.3696L13.0735 26.5919C12.7542 26.9822 12.3284 27.1596 11.8671 27.1596C11.4059 27.1596 10.9446 26.9467 10.6253 26.5209C10.235 25.9887 10.2705 25.1016 10.6963 24.5694L14.3863 19.9568C13.0735 19.7084 11.7607 19.2827 10.5898 18.6085C9.8447 18.1827 9.59633 17.2602 10.0221 16.4796C10.4479 15.7345 11.4059 15.4861 12.151 15.9119C14.8476 17.4376 18.2184 17.4376 20.9504 15.9474C21.6956 15.5216 22.6536 15.8055 23.0439 16.5506C23.4342 17.3312 23.1503 18.2537 22.4052 18.6795Z" fill="white"/>
</g>
<defs>
<clipPath id="clip0_753_1721">
<rect width="22.7082" height="22.7082" fill="white" transform="translate(5.16113 5.16101)"/>
</clipPath>
</defs>
</svg>
