<svg width="20" height="21" viewBox="0 0 20 21" fill="none" xmlns="http://www.w3.org/2000/svg">
<path d="M10 10.5C8.65938 10.5 7.51172 10.0227 6.55703 9.06797C5.60234 8.11328 5.125 6.96562 5.125 5.625C5.125 4.28437 5.60234 3.13672 6.55703 2.18203C7.51172 1.22734 8.65938 0.75 10 0.75C11.3406 0.75 12.4883 1.22734 13.443 2.18203C14.3977 3.13672 14.875 4.28437 14.875 5.625C14.875 6.96562 14.3977 8.11328 13.443 9.06797C12.4883 10.0227 11.3406 10.5 10 10.5ZM0.25 20.25V16.8375C0.25 16.1469 0.427734 15.5121 0.783203 14.9332C1.13867 14.3543 1.61094 13.9125 2.2 13.6078C3.45937 12.9781 4.73906 12.5059 6.03906 12.191C7.33906 11.8762 8.65938 11.7188 10 11.7188C11.3406 11.7188 12.6609 11.8762 13.9609 12.191C15.2609 12.5059 16.5406 12.9781 17.8 13.6078C18.3891 13.9125 18.8613 14.3543 19.2168 14.9332C19.5723 15.5121 19.75 16.1469 19.75 16.8375V20.25H0.25ZM2.6875 17.8125H17.3125V16.8375C17.3125 16.6141 17.2566 16.4109 17.1449 16.2281C17.0332 16.0453 16.8859 15.9031 16.7031 15.8016C15.6062 15.2531 14.4992 14.8418 13.382 14.5676C12.2648 14.2934 11.1375 14.1562 10 14.1562C8.8625 14.1562 7.73516 14.2934 6.61797 14.5676C5.50078 14.8418 4.39375 15.2531 3.29688 15.8016C3.11406 15.9031 2.9668 16.0453 2.85508 16.2281C2.74336 16.4109 2.6875 16.6141 2.6875 16.8375V17.8125ZM10 8.0625C10.6703 8.0625 11.2441 7.82383 11.7215 7.34648C12.1988 6.86914 12.4375 6.29531 12.4375 5.625C12.4375 4.95469 12.1988 4.38086 11.7215 3.90352C11.2441 3.42617 10.6703 3.1875 10 3.1875C9.32969 3.1875 8.75586 3.42617 8.27852 3.90352C7.80117 4.38086 7.5625 4.95469 7.5625 5.625C7.5625 6.29531 7.80117 6.86914 8.27852 7.34648C8.75586 7.82383 9.32969 8.0625 10 8.0625Z" fill="#333333"/>
</svg>
