<svg width="27" height="28" viewBox="0 0 27 28" fill="none" xmlns="http://www.w3.org/2000/svg">
<path d="M10.5833 8.16665C11.5517 8.16665 12.3333 8.94832 12.3333 9.91665C12.3333 10.885 11.5517 11.6667 10.5833 11.6667C9.61501 11.6667 8.83334 10.885 8.83334 9.91665C8.83334 8.94832 9.61501 8.16665 10.5833 8.16665ZM16.4167 16.3333C17.385 16.3333 18.1667 17.115 18.1667 18.0833C18.1667 19.0517 17.385 19.8333 16.4167 19.8333C15.4483 19.8333 14.6667 19.0517 14.6667 18.0833C14.6667 17.115 15.4483 16.3333 16.4167 16.3333ZM9.31167 19.8333L7.66667 18.1883L17.6883 8.16665L19.3333 9.81165L9.31167 19.8333ZM21.2583 3.32499L21.97 7.82832L26.065 9.91665L24 14L26.0767 18.0833L21.9467 20.1717L21.235 24.675L16.6967 23.9633L13.465 27.195L10.2217 23.9167L5.71834 24.6633L4.99501 20.125L0.92334 18.0483L3.00001 13.965L0.935006 9.91665L5.03001 7.80499L5.74167 3.34832L10.2567 4.08332L13.5 0.810822L16.72 4.03665L21.2583 3.32499ZM22.95 10.9317L19.9167 9.33332L19.3333 5.96165L15.95 6.45165L13.5 4.08332L11.05 6.45165L7.66667 5.96165L7.08334 9.33332L4.05001 10.9317L5.56667 14L4.05001 17.0683L7.08334 18.6667L7.66667 22.0383L11.05 21.5483L13.5 23.9167L15.95 21.5483L19.3333 22.0383L19.9167 18.6667L22.95 17.0683L21.4333 14L22.95 10.9317Z" fill="#0F0F0F"/>
</svg>
