<svg width="18" height="18" viewBox="0 0 18 18" fill="none" xmlns="http://www.w3.org/2000/svg">
<path d="M17.6106 15.9129L13.4526 11.5884C14.5221 10.3195 15.1083 8.71322 15.1075 7.05374C15.1075 3.16437 11.9431 0 8.05374 0C4.16437 0 1 3.16437 1 7.05374C1 10.9431 4.16437 14.1075 8.05374 14.1075C9.51387 14.1075 10.9053 13.6671 12.0949 12.8311L16.2845 17.1884C16.4597 17.3703 16.6952 17.4706 16.9476 17.4706C17.1865 17.4706 17.4131 17.3795 17.5852 17.2139C17.7608 17.0446 17.8621 16.8126 17.8669 16.5687C17.8716 16.3248 17.7795 16.089 17.6106 15.9129ZM8.05374 1.84011C10.9286 1.84011 13.2674 4.17888 13.2674 7.05374C13.2674 9.9286 10.9286 12.2674 8.05374 12.2674C5.17888 12.2674 2.84011 9.9286 2.84011 7.05374C2.84011 4.17888 5.17888 1.84011 8.05374 1.84011Z" fill="white"/>
</svg>
