<svg width="19" height="15" viewBox="0 0 19 15" fill="none" xmlns="http://www.w3.org/2000/svg">
<path d="M14.6252 1.375C14.6252 1.20924 14.691 1.05027 14.8082 0.933057C14.9255 0.815847 15.0844 0.75 15.2502 0.75C15.4159 0.75 15.5749 0.815847 15.6921 0.933058C15.8093 1.05027 15.8752 1.20924 15.8752 1.375L15.8752 12.3662L17.3077 10.9325C17.3658 10.8744 17.4348 10.8283 17.5107 10.7968C17.5866 10.7654 17.668 10.7492 17.7502 10.7492C17.8324 10.7492 17.9137 10.7654 17.9897 10.7968C18.0656 10.8283 18.1346 10.8744 18.1927 10.9325C18.2508 10.9906 18.2969 11.0596 18.3283 11.1355C18.3598 11.2114 18.376 11.2928 18.376 11.375C18.376 11.4572 18.3598 11.5386 18.3283 11.6145C18.2969 11.6904 18.2508 11.7594 18.1927 11.8175L15.6927 14.3162L15.6839 14.325C15.5666 14.4394 15.4088 14.5028 15.2449 14.5014C15.081 14.5 14.9243 14.4339 14.8089 14.3175L12.3089 11.8175C12.1916 11.7003 12.1256 11.5413 12.1255 11.3754C12.1253 11.2096 12.1911 11.0505 12.3083 10.9331C12.4255 10.8158 12.5845 10.7498 12.7504 10.7497C12.9162 10.7495 13.0753 10.8153 13.1927 10.9325L14.6252 12.3662L14.6252 1.375ZM9.62519 12C9.79095 12 9.94992 12.0658 10.0671 12.1831C10.1843 12.3003 10.2502 12.4592 10.2502 12.625C10.2502 12.7908 10.1843 12.9497 10.0671 13.0669C9.94992 13.1842 9.79095 13.25 9.62519 13.25L8.37519 13.25C8.20943 13.25 8.05045 13.1842 7.93324 13.0669C7.81603 12.9497 7.75019 12.7908 7.75019 12.625C7.75019 12.4592 7.81603 12.3003 7.93324 12.1831C8.05046 12.0658 8.20943 12 8.37519 12L9.62519 12ZM9.62519 8.25C9.79095 8.25 9.94992 8.31585 10.0671 8.43306C10.1843 8.55027 10.2502 8.70924 10.2502 8.875C10.2502 9.04076 10.1843 9.19973 10.0671 9.31694C9.94992 9.43415 9.79095 9.5 9.62519 9.5L5.87519 9.5C5.70943 9.5 5.55046 9.43415 5.43325 9.31694C5.31604 9.19973 5.25019 9.04076 5.25019 8.875C5.25019 8.70924 5.31604 8.55027 5.43325 8.43306C5.55046 8.31585 5.70943 8.25 5.87519 8.25L9.62519 8.25ZM9.62519 4.5C9.79095 4.5 9.94992 4.56585 10.0671 4.68306C10.1843 4.80027 10.2502 4.95924 10.2502 5.125C10.2502 5.29076 10.1843 5.44973 10.0671 5.56694C9.94992 5.68415 9.79095 5.75 9.62519 5.75L3.37519 5.75C3.20943 5.75 3.05046 5.68415 2.93325 5.56694C2.81604 5.44973 2.75019 5.29076 2.75019 5.125C2.75019 4.95924 2.81604 4.80027 2.93325 4.68306C3.05046 4.56585 3.20943 4.5 3.37519 4.5L9.62519 4.5ZM10.2502 1.375C10.2502 1.20924 10.1843 1.05027 10.0671 0.933057C9.94992 0.815847 9.79095 0.749999 9.62519 0.749999L0.875189 0.749998C0.709429 0.749998 0.550457 0.815846 0.433247 0.933056C0.316036 1.05027 0.250189 1.20924 0.250189 1.375C0.250189 1.54076 0.316036 1.69973 0.433247 1.81694C0.550457 1.93415 0.709429 2 0.875189 2L9.62519 2C9.79095 2 9.94992 1.93415 10.0671 1.81694C10.1843 1.69973 10.2502 1.54076 10.2502 1.375Z" fill="#333333"/>
</svg>
