<svg width="19" height="15" viewBox="0 0 19 15" fill="none" xmlns="http://www.w3.org/2000/svg">
<path d="M15.8763 13.8765C15.8763 14.0422 15.8104 14.2012 15.6932 14.3184C15.576 14.4356 15.417 14.5015 15.2513 14.5015C15.0855 14.5015 14.9265 14.4356 14.8093 14.3184C14.6921 14.2012 14.6263 14.0422 14.6263 13.8765L14.6263 2.88521L13.1938 4.31896C13.1356 4.37707 13.0667 4.42316 12.9907 4.45461C12.9148 4.48606 12.8334 4.50225 12.7513 4.50225C12.6691 4.50225 12.5877 4.48606 12.5118 4.45461C12.4359 4.42316 12.3669 4.37707 12.3088 4.31896C12.2506 4.26085 12.2045 4.19186 12.1731 4.11594C12.1417 4.04001 12.1255 3.95864 12.1255 3.87646C12.1255 3.79428 12.1417 3.7129 12.1731 3.63698C12.2045 3.56106 12.2506 3.49207 12.3088 3.43396L14.8088 0.93521L14.8175 0.92646C14.9348 0.812036 15.0927 0.748618 15.2565 0.750023C15.4204 0.751427 15.5771 0.817541 15.6925 0.933959L18.1925 3.43396C18.3099 3.55115 18.3759 3.71017 18.376 3.87602C18.3761 4.04187 18.3103 4.20098 18.1931 4.31834C18.0759 4.43569 17.9169 4.50169 17.7511 4.50181C17.5852 4.50193 17.4261 4.43615 17.3088 4.31896L15.8763 2.88521L15.8763 13.8765ZM9.62519 12C9.79095 12 9.94992 12.0658 10.0671 12.1831C10.1843 12.3003 10.2502 12.4592 10.2502 12.625C10.2502 12.7908 10.1843 12.9497 10.0671 13.0669C9.94992 13.1842 9.79095 13.25 9.62519 13.25L8.37519 13.25C8.20943 13.25 8.05045 13.1842 7.93324 13.0669C7.81603 12.9497 7.75019 12.7908 7.75019 12.625C7.75019 12.4592 7.81603 12.3003 7.93324 12.1831C8.05046 12.0658 8.20943 12 8.37519 12L9.62519 12ZM9.62519 8.25C9.79095 8.25 9.94992 8.31585 10.0671 8.43306C10.1843 8.55027 10.2502 8.70924 10.2502 8.875C10.2502 9.04076 10.1843 9.19973 10.0671 9.31694C9.94992 9.43415 9.79095 9.5 9.62519 9.5L5.87519 9.5C5.70943 9.5 5.55046 9.43415 5.43325 9.31694C5.31604 9.19973 5.25019 9.04076 5.25019 8.875C5.25019 8.70924 5.31604 8.55027 5.43325 8.43306C5.55046 8.31585 5.70943 8.25 5.87519 8.25L9.62519 8.25ZM9.62519 4.5C9.79095 4.5 9.94992 4.56585 10.0671 4.68306C10.1843 4.80027 10.2502 4.95924 10.2502 5.125C10.2502 5.29076 10.1843 5.44973 10.0671 5.56694C9.94992 5.68415 9.79095 5.75 9.62519 5.75L3.37519 5.75C3.20943 5.75 3.05046 5.68415 2.93325 5.56694C2.81604 5.44973 2.75019 5.29076 2.75019 5.125C2.75019 4.95924 2.81604 4.80027 2.93325 4.68306C3.05046 4.56585 3.20943 4.5 3.37519 4.5L9.62519 4.5ZM10.2502 1.375C10.2502 1.20924 10.1843 1.05027 10.0671 0.933057C9.94992 0.815847 9.79095 0.749999 9.62519 0.749999L0.875189 0.749998C0.709429 0.749998 0.550457 0.815846 0.433247 0.933056C0.316036 1.05027 0.250189 1.20924 0.250189 1.375C0.250189 1.54076 0.316036 1.69973 0.433247 1.81694C0.550457 1.93415 0.709429 2 0.875189 2L9.62519 2C9.79095 2 9.94992 1.93415 10.0671 1.81694C10.1843 1.69973 10.2502 1.54076 10.2502 1.375Z" fill="#333333"/>
</svg>
