<svg width="32" height="32" viewBox="0 0 32 32" fill="none" xmlns="http://www.w3.org/2000/svg">
<path fill-rule="evenodd" clip-rule="evenodd" d="M16 32C24.8366 32 32 24.8366 32 16C32 7.16344 24.8366 0 16 0C7.16344 0 0 7.16344 0 16C0 24.8366 7.16344 32 16 32ZM13.0667 23.3319C13.4559 23.3319 13.6337 23.1587 13.8486 22.9495L13.8667 22.9319L15.7876 21.0641L19.7869 24.0189C20.5227 24.4249 21.0538 24.2147 21.2371 23.3358L23.8617 10.9674C24.1305 9.89 23.4511 9.40136 22.7472 9.72093L7.33515 15.6637C6.28314 16.0857 6.28927 16.6726 7.14339 16.9341L11.0985 18.1686L20.2549 12.3919C20.6871 12.1298 21.0838 12.2707 20.7582 12.5597L13.3404 19.2537L13.339 19.2528L13.0667 23.3319Z" fill="#828282"/>
</svg>
