<svg width="32" height="32" viewBox="0 0 32 32" fill="none" xmlns="http://www.w3.org/2000/svg">
<path fill-rule="evenodd" clip-rule="evenodd" d="M16 0C24.8366 0 32 7.16344 32 16C32 24.8366 24.8366 32 16 32C7.16344 32 0 24.8366 0 16C0 7.16344 7.16344 0 16 0Z" fill="#828282"/>
<path fill-rule="evenodd" clip-rule="evenodd" d="M20.2626 13.9723C20.1848 13.3401 19.9905 12.8437 19.6454 12.404C19.1973 11.8378 18.6246 11.4988 17.7769 11.2976C17.2244 11.1636 17.0011 11.179 16.8013 11.3615C16.6152 11.5325 16.5788 11.8753 16.7211 12.0973C16.8211 12.2585 16.9365 12.3162 17.2575 12.3792C17.6849 12.4578 17.9802 12.5599 18.2489 12.7135C18.8192 13.0428 19.0848 13.5581 19.1132 14.3923C19.1265 14.784 19.1604 14.9045 19.2972 15.0434C19.5507 15.2973 20.002 15.2479 20.1934 14.944C20.2637 14.8295 20.2744 14.7797 20.2818 14.5137C20.2867 14.349 20.2796 14.1039 20.2626 13.9723Z" fill="white"/>
<path fill-rule="evenodd" clip-rule="evenodd" d="M22.4965 14.6851C22.3839 12.7482 21.6263 11.1899 20.2704 10.0934C19.5065 9.47736 18.5831 9.05373 17.571 8.84771C17.2002 8.77403 16.5175 8.71431 16.4004 8.74847C16.2899 8.7801 16.1336 8.89977 16.0639 9.00798C15.9903 9.12532 15.9737 9.38733 16.0365 9.53888C16.1379 9.79223 16.3267 9.88174 16.8551 9.92798C17.6699 9.99926 18.5102 10.2855 19.1452 10.7093C19.8701 11.1917 20.4463 11.8517 20.8191 12.6272C21.1411 13.2935 21.3392 14.2537 21.3337 15.1135C21.3319 15.4245 21.3799 15.6001 21.505 15.7285C21.6938 15.926 21.969 15.9691 22.2118 15.838C22.481 15.6965 22.5439 15.448 22.4965 14.6851Z" fill="white"/>
<path fill-rule="evenodd" clip-rule="evenodd" d="M24.9682 22.1442C24.9304 22.0335 24.842 21.8627 24.7788 21.7647C24.3809 21.1638 22.2431 19.4908 21.1757 18.9437C20.5663 18.6306 20.1147 18.5262 19.78 18.6242C19.42 18.7255 19.2305 18.8931 18.6274 19.6426C18.3843 19.9431 18.1348 20.2245 18.0685 20.2688C17.9043 20.3826 17.5822 20.4744 17.3548 20.4744C16.8275 20.4712 15.8707 20.1296 15.1349 19.6805C14.5633 19.3327 13.8308 18.7097 13.2686 18.093C12.6055 17.3687 12.154 16.7299 11.7971 16.0088C11.3361 15.0822 11.2192 14.5161 11.4118 14.1018C11.4592 13.9974 11.5224 13.8867 11.5508 13.8519C11.5792 13.8203 11.8761 13.5768 12.2044 13.3111C12.8487 12.7988 12.9528 12.6818 13.0728 12.3307C13.2244 11.8848 13.1834 11.4294 12.9497 10.9708C12.7697 10.6229 12.2992 9.86393 11.9582 9.37374C11.5066 8.7286 10.3824 7.34971 10.1582 7.16307C9.75399 6.83419 9.23616 6.77723 8.66454 6.99866C8.06146 7.23269 6.93094 8.14351 6.44778 8.77919C6.01201 9.35477 5.8447 9.76272 5.81941 10.3004C5.79732 10.7431 5.8352 10.9265 6.06888 11.4927C7.89724 15.9329 10.6255 19.4781 14.3739 22.2929C16.3317 23.7634 18.3621 24.883 20.4684 25.6484C21.6968 26.0943 22.2304 26.1164 22.8588 25.7496C23.1241 25.5914 23.7809 24.9178 24.1472 24.4276C24.7535 23.6116 24.9777 23.2353 25.0409 22.9349C25.0851 22.7293 25.0503 22.3719 24.9682 22.1442Z" fill="white"/>
<path fill-rule="evenodd" clip-rule="evenodd" d="M24.7703 15.13C24.7298 14.0344 24.5454 13.1357 24.1607 12.1337C23.781 11.1481 23.3966 10.505 22.6708 9.63512C21.9845 8.8195 21.4515 8.3538 20.6062 7.83541C19.4268 7.11315 17.9914 6.63518 16.3829 6.43417C15.8343 6.36392 15.7102 6.36894 15.5419 6.48123C15.2158 6.69395 15.2202 7.22454 15.5473 7.43407C15.6556 7.50073 15.7517 7.52501 16.1905 7.58244C16.8641 7.67313 17.2972 7.75859 17.8112 7.89882C19.8265 8.44974 21.3763 9.57583 22.4124 11.2475C23.2795 12.6408 23.6394 14.0342 23.5883 15.8139C23.5706 16.4155 23.5835 16.5214 23.6754 16.666C23.8516 16.9354 24.316 16.9887 24.5543 16.7651C24.7026 16.6289 24.7305 16.5266 24.7597 16.0116C24.7737 15.743 24.7767 15.3464 24.7703 15.13Z" fill="white"/>
</svg>
