<svg width="32" height="32" viewBox="0 0 32 32" fill="none" xmlns="http://www.w3.org/2000/svg">
<path fill-rule="evenodd" clip-rule="evenodd" d="M16 0C7.16344 0 0 7.16344 0 16C0 24.8366 7.16344 32 16 32C24.8366 32 32 24.8366 32 16C32 7.16344 24.8366 0 16 0ZM17.3023 21.0506C17.1446 21.2169 16.8366 21.2505 16.8366 21.2505H15.8165C15.8165 21.2505 13.5661 21.3833 11.5836 19.3578C9.42165 17.1479 7.51262 12.7635 7.51262 12.7635C7.51262 12.7635 7.40244 12.4759 7.5218 12.3374C7.65619 12.1809 8.02264 12.1711 8.02264 12.1711L10.4609 12.1555C10.4609 12.1555 10.6904 12.1924 10.8549 12.3112C10.9909 12.4095 11.0669 12.5922 11.0669 12.5922C11.0669 12.5922 11.4609 13.5706 11.9826 14.4555C13.0018 16.1835 13.4759 16.5613 13.8215 16.3761C14.3257 16.1065 14.1746 13.9335 14.1746 13.9335C14.1746 13.9335 14.1838 13.1453 13.9209 12.7938C13.7172 12.5218 13.3332 12.4423 13.1638 12.4202C13.026 12.4021 13.2514 12.0891 13.5436 11.949C13.9826 11.7385 14.7573 11.7262 15.673 11.7352C16.3866 11.7426 16.592 11.786 16.8708 11.8523C17.5179 12.0056 17.4977 12.4968 17.4541 13.5569C17.441 13.874 17.4259 14.2419 17.4259 14.6669C17.4259 14.7624 17.4231 14.8642 17.4201 14.9689C17.405 15.512 17.3877 16.1339 17.7523 16.3654C17.9392 16.4834 18.3958 16.3826 19.5386 14.4784C20.0803 13.5755 20.486 12.5144 20.486 12.5144C20.486 12.5144 20.5753 12.3251 20.7131 12.244C20.8541 12.1613 21.0444 12.1867 21.0444 12.1867L23.6104 12.1711C23.6104 12.1711 24.3817 12.0801 24.5061 12.4226C24.6371 12.7807 24.2181 13.6181 23.1697 14.9897C22.1752 16.2912 21.6912 16.7704 21.7356 17.1941C21.7681 17.5038 22.0827 17.7839 22.6864 18.3336C23.9466 19.4821 24.2844 20.0864 24.3656 20.2316C24.3723 20.2436 24.3773 20.2525 24.3809 20.2583C24.946 21.1784 23.754 21.2505 23.754 21.2505L21.4743 21.2817C21.4743 21.2817 20.9852 21.3767 20.3408 20.9424C20.0032 20.7151 19.6733 20.3439 19.3592 19.9903C18.8794 19.4503 18.4361 18.9515 18.0578 19.0694C17.4226 19.2676 17.4417 20.6106 17.4417 20.6106C17.4417 20.6106 17.4468 20.8982 17.3023 21.0506Z" fill="#828282"/>
</svg>
