<svg width="32" height="32" viewBox="0 0 32 32" fill="none" xmlns="http://www.w3.org/2000/svg">
<path fill-rule="evenodd" clip-rule="evenodd" d="M16 32C24.8366 32 32 24.8366 32 16C32 7.16344 24.8366 0 16 0C7.16344 0 0 7.16344 0 16C0 24.8366 7.16344 32 16 32Z" fill="#828282"/>
<path fill-rule="evenodd" clip-rule="evenodd" d="M16.5276 24.9017H16.5237C14.9314 24.9012 13.3668 24.5017 11.9772 23.7437L6.93359 25.0667L8.28334 20.1366C7.45075 18.6937 7.01265 17.057 7.01336 15.3802C7.01545 10.1345 11.2835 5.8667 16.5276 5.8667C19.0727 5.8678 21.4615 6.85861 23.2577 8.65697C25.054 10.4552 26.0427 12.8456 26.0417 15.3877C26.0396 20.6322 21.7733 24.8996 16.5276 24.9017ZM12.2106 22.0213L12.4993 22.1927C13.7135 22.9132 15.1052 23.2944 16.5242 23.2949H16.5274C20.8859 23.2949 24.4333 19.7475 24.435 15.3872C24.4359 13.2742 23.6141 11.2874 22.1211 9.7927C20.6281 8.29797 18.6427 7.4744 16.5305 7.47366C12.1686 7.47366 8.62119 11.0208 8.61946 15.3808C8.61884 16.875 9.03692 18.3301 9.8285 19.5891L10.0165 19.8883L9.21766 22.8064L12.2106 22.0213ZM21.3206 17.6501C21.2611 17.5509 21.1027 17.4914 20.865 17.3724C20.6272 17.2534 19.4585 16.6784 19.2405 16.599C19.0227 16.5197 18.8641 16.4801 18.7057 16.718C18.5472 16.9559 18.0916 17.4914 17.9529 17.6501C17.8143 17.8087 17.6756 17.8286 17.4379 17.7096C17.2002 17.5906 16.4342 17.3396 15.5262 16.5297C14.8195 15.8993 14.3424 15.1208 14.2037 14.8828C14.065 14.6448 14.1889 14.5162 14.3079 14.3977C14.4149 14.2911 14.5457 14.12 14.6645 13.9812C14.7834 13.8424 14.823 13.7432 14.9023 13.5847C14.9815 13.4259 14.9419 13.2872 14.8824 13.1682C14.823 13.0492 14.3476 11.879 14.1495 11.403C13.9565 10.9395 13.7605 11.0023 13.6146 10.9949C13.4761 10.988 13.3175 10.9865 13.159 10.9865C13.0005 10.9865 12.743 11.046 12.5251 11.284C12.3072 11.522 11.693 12.0972 11.693 13.2672C11.693 14.4373 12.5449 15.5677 12.6637 15.7264C12.7826 15.8851 14.34 18.2862 16.7248 19.3159C17.2919 19.5609 17.7347 19.7072 18.08 19.8167C18.6495 19.9977 19.1678 19.9721 19.5773 19.9109C20.0341 19.8427 20.9838 19.3359 21.182 18.7806C21.38 18.2252 21.38 17.7492 21.3206 17.6501Z" fill="white"/>
</svg>
